<?xml version="1.0" encoding="UTF-8" standalone="no"?>
<!-- Created with Inkscape (http://www.inkscape.org/) -->

<svg
   width="534.09222"
   height="177.8694"
   viewBox="0 0 141.3119 47.061278"
   version="1.1"
   id="svg1"
   inkscape:version="1.4-dev (1:1.4.0-dev+202403210151+2fe0648968)"
   sodipodi:docname="logo.svg"
   xmlns:inkscape="http://www.inkscape.org/namespaces/inkscape"
   xmlns:sodipodi="http://sodipodi.sourceforge.net/DTD/sodipodi-0.dtd"
   xmlns="http://www.w3.org/2000/svg"
   xmlns:svg="http://www.w3.org/2000/svg">
  <sodipodi:namedview
     id="namedview1"
     pagecolor="#262626"
     bordercolor="#000000"
     borderopacity="0.25"
     inkscape:showpageshadow="2"
     inkscape:pageopacity="0.0"
     inkscape:pagecheckerboard="0"
     inkscape:deskcolor="#1a1a1a"
     inkscape:document-units="mm"
     inkscape:zoom="1.0496116"
     inkscape:cx="437.3046"
     inkscape:cy="73.360467"
     inkscape:window-width="1920"
     inkscape:window-height="1011"
     inkscape:window-x="0"
     inkscape:window-y="0"
     inkscape:window-maximized="1"
     inkscape:current-layer="g2" />
  <defs
     id="defs1" />
  <g
     inkscape:label="Layer 1"
     inkscape:groupmode="layer"
     id="layer1"
     transform="translate(-397.40421,-214.84168)">
    <g
       id="g1"
       transform="matrix(0.65573815,0,0,0.65573815,144.79199,-7.0614805)"
       style="fill:#1a1a1a;fill-opacity:1">
      <path
         id="path1"
         d="m 415.17786,338.40209 -29.94448,71.7684 h 14.68014 l 7.97313,-18.5487 h 25.56968 l 7.67962,18.5487 h 14.6805 l -30.13781,-71.7684 z m 5.25039,18.74273 7.67997,21.7551 h -15.361 z"
         style="fill:#1a1a1a;fill-opacity:1;fill-rule:nonzero;stroke:none;stroke-width:0.352778" />
      <path
         id="path2"
         d="m 462.96408,338.40209 c -12.37051,0 -23.17715,5.81377 -29.76563,14.84841 l 6.74829,16.06938 c 0.94968,-4.42101 3.06352,-8.71749 5.9242,-11.7796 4.0393,-4.31588 10.14236,-6.75499 16.81091,-6.75499 8.0765,0 14.83854,3.28366 19.06517,9.1941 h 15.12112 c -4.50745,-12.47811 -18.7826,-21.5773 -33.90406,-21.5773 z m -7.88917,35.18147 v 12.00679 h 28.73904 c -3.66289,7.69337 -11.176,12.19693 -20.37997,12.19693 -4.86163,0 -9.30981,-1.29681 -13.02773,-3.56376 l 6.42302,15.29786 c 2.37137,0.42298 4.82847,0.64911 7.35577,0.64911 10.51877,0 19.44158,-3.65901 26.29711,-10.69516 6.38599,-6.66151 9.95504,-15.29221 9.95504,-24.20373 v -1.68804 z"
         style="fill:#1a1a1a;fill-opacity:1;fill-rule:nonzero;stroke:none;stroke-width:0.352778" />
      <g
         id="g2"
         transform="matrix(1.7537623,0,0,1.7537623,-373.28268,-172.90936)"
         style="fill:#1a1a1a;fill-opacity:1">
        <g
           id="g3"
           transform="translate(0,-0.65759251)">
          <path
             id="path3"
             d="m 502.97292,311.90086 h 2.75056 l 1.49346,-3.47531 h 4.79251 l 1.43859,3.47531 h 2.75058 l -5.64633,-13.44792 h -1.96773 z m 5.1563,-5.85886 1.4382,-4.07745 1.44021,4.07745 z m 8.28839,2.01977 c 0.0911,1.05545 0.32748,1.72817 0.87437,2.45615 0.80178,1.01916 2.11415,1.61928 3.55235,1.61928 2.42307,0 4.29967,-1.87297 4.29967,-4.31178 0,-1.12805 -0.40049,-2.07502 -1.20226,-2.80258 -0.52794,-0.49164 -0.94697,-0.71063 -2.27628,-1.21961 -1.27647,-0.47268 -1.31237,-0.49164 -1.49507,-0.60012 -0.49162,-0.31055 -0.74692,-0.72798 -0.74692,-1.2196 0,-0.80179 0.56543,-1.36561 1.38496,-1.36561 0.83807,0 1.34826,0.51019 1.42085,1.41925 h 2.58683 c -0.0536,-1.01916 -0.2916,-1.70923 -0.83808,-2.38356 -0.72798,-0.90906 -1.89353,-1.43658 -3.15104,-1.43658 -2.18634,0 -3.91775,1.69188 -3.91775,3.82014 0,1.69349 0.98448,2.98569 2.80582,3.658 1.8036,0.67433 1.93144,0.72797 2.33153,1.03852 0.40169,0.32749 0.62069,0.80016 0.62069,1.36439 0,0.96391 -0.74692,1.63824 -1.82295,1.63824 -1.11031,0 -1.71245,-0.54648 -1.82095,-1.67453 z m 10.45779,3.83909 h 2.49527 v -10.0811 l 3.51645,10.0811 h 2.03993 l 3.51645,-10.0811 v 10.0811 h 2.49568 v -13.44792 h -3.4253 l -3.58865,10.1916 -3.62494,-10.1916 h -3.42489 z m 15.28459,0 h 2.75056 l 1.49507,-3.47531 h 4.79089 l 1.44022,3.47531 h 2.75057 l -5.64793,-13.44792 h -1.96774 z m 5.1563,-5.85886 1.4386,-4.07745 1.4398,4.07745 z"
             style="fill:#1a1a1a;fill-opacity:1;fill-rule:nonzero;stroke:none;stroke-width:0.403309"
             sodipodi:nodetypes="cccccccccccccccsscccsscccssccssccccccccccccccccccccccccccccc" />
          <path
             d="m 507.83511,322.95322 h 4.87539 c -0.62159,1.30492 -1.89618,2.06974 -3.45757,2.06974 -2.31105,0 -4.08023,-1.71979 -4.08023,-3.97968 0,-1.01988 0.43109,-2.13325 1.09961,-2.84974 0.68474,-0.73201 1.7212,-1.14653 2.85256,-1.14653 1.37125,0 2.51777,0.5581 3.23568,1.55998 h 2.56575 c -0.76623,-2.11666 -3.18735,-3.66006 -5.7531,-3.66006 -3.45899,0 -6.20007,2.67335 -6.20007,6.0646 0,3.45334 2.78941,6.11152 6.4068,6.11152 1.78435,0 3.29882,-0.62018 4.46193,-1.81328 1.08444,-1.13136 1.68945,-2.59503 1.68945,-4.1081 v -0.28645 h -7.6962 z m 9.1306,3.9631 h 6.32671 v -2.08491 h -4.14372 v -2.73827 h 3.96875 v -2.08491 h -3.96875 v -2.76966 h 4.14372 v -2.08527 h -6.32671 z m 8.28639,0 h 2.18264 v -4.50462 l 3.09245,4.50462 h 2.69275 l -3.1877,-4.34481 c 0.9084,-0.22331 1.35467,-0.43004 1.86479,-0.86007 0.8128,-0.68474 1.21108,-1.60796 1.21108,-2.78624 0,-1.20862 -0.43003,-2.21192 -1.24283,-2.89666 -0.76483,-0.65334 -1.60973,-0.87524 -3.2191,-0.87524 h -3.39408 z m 2.18264,-6.14468 v -3.53307 h 0.97296 c 1.01988,0 1.57798,0.11148 1.92793,0.41346 0.38312,0.30303 0.57326,0.76446 0.57326,1.33773 0,1.24178 -0.71649,1.78188 -2.40594,1.78188 z m 7.2831,6.14468 h 2.18263 v -8.81803 l 3.07587,8.81803 h 1.7847 l 3.07552,-8.81803 v 8.81803 h 2.1844 V 315.1533 h -2.99579 l -3.14078,8.91469 -3.17077,-8.91469 h -2.99578 z m 14.34253,0 h 6.32672 v -2.08491 H 551.243 v -2.73827 h 3.96875 v -2.08491 H 551.243 v -2.76966 h 4.14409 v -2.08527 h -6.32672 z"
             style="fill:#1a1a1a;fill-opacity:1;fill-rule:nonzero;stroke:none;stroke-width:0.352778"
             id="path1-0" />
        </g>
      </g>
    </g>
  </g>
</svg>
